<svg xmlns="http://www.w3.org/2000/svg" width="1080" height="820" viewBox="0 0 1080 820"><rect width="100%" height="100%" fill="#ffffff"/><text x="38" y="38" font-family="Arial" font-size="22" font-weight="700">Urban corridor geometry long-run simulation, preliminary</text><text x="38" y="62" font-family="Arial" font-size="13" fill="#555">Mean across 50 seeded landscapes; sampled after burn-in through step 5000.</text><text x="48" y="73" font-family="Arial" font-size="13" fill="#555">benign long run</text><text x="48" y="93" font-family="Arial" font-size="15" font-weight="700">Recent persistent species</text><line x1="48" y1="310" x2="513" y2="310" stroke="#333"/><line x1="48" y1="105" x2="48" y2="310" stroke="#333"/><rect x="85" y="160.19130434782608" width="42" height="149.80869565217392" fill="#4e6b7d"/><line x1="106" x2="106" y1="156.08695652173913" y2="168.91304347826085" stroke="#222" stroke-width="2"/><line x1="97" x2="115" y1="168.91304347826085" y2="168.91304347826085" stroke="#222" stroke-width="2"/><line x1="97" x2="115" y1="156.08695652173913" y2="156.08695652173913" stroke="#222" stroke-width="2"/><text x="106" y="327" text-anchor="middle" font-family="Arial" font-size="10" fill="#333">web</text><text x="106" y="154.19130434782608" text-anchor="middle" font-family="Arial" font-size="10" fill="#333">11.7</text><rect x="193" y="160.19130434782608" width="42" height="149.80869565217392" fill="#7b6a53"/><line x1="214" x2="214" y1="156.08695652173913" y2="168.91304347826085" stroke="#222" stroke-width="2"/><line x1="205" x2="223" y1="168.91304347826085" y2="168.91304347826085" stroke="#222" stroke-width="2"/><line x1="205" x2="223" y1="156.08695652173913" y2="156.08695652173913" stroke="#222" stroke-width="2"/><text x="214" y="327" text-anchor="middle" font-family="Arial" font-size="10" fill="#333">mst</text><text x="214" y="154.19130434782608" text-anchor="middle" font-family="Arial" font-size="10" fill="#333">11.7</text><rect x="301" y="160.19130434782608" width="42" height="149.80869565217392" fill="#2f8f6f"/><line x1="322" x2="322" y1="156.08695652173913" y2="168.91304347826085" stroke="#222" stroke-width="2"/><line x1="313" x2="331" y1="168.91304347826085" y2="168.91304347826085" stroke="#222" stroke-width="2"/><line x1="313" x2="331" y1="156.08695652173913" y2="156.08695652173913" stroke="#222" stroke-width="2"/><text x="322" y="327" text-anchor="middle" font-family="Arial" font-size="10" fill="#333">tree</text><text x="322" y="154.19130434782608" text-anchor="middle" font-family="Arial" font-size="10" fill="#333">11.7</text><rect x="409" y="160.70434782608694" width="42" height="149.29565217391306" fill="#b7791f"/><line x1="430" x2="430" y1="156.08695652173913" y2="175.9673913043478" stroke="#222" stroke-width="2"/><line x1="421" x2="439" y1="175.9673913043478" y2="175.9673913043478" stroke="#222" stroke-width="2"/><line x1="421" x2="439" y1="156.08695652173913" y2="156.08695652173913" stroke="#222" stroke-width="2"/><text x="430" y="327" text-anchor="middle" font-family="Arial" font-size="10" fill="#333">hybrid</text><text x="430" y="154.70434782608694" text-anchor="middle" font-family="Arial" font-size="10" fill="#333">11.6</text><text x="568" y="73" font-family="Arial" font-size="13" fill="#555">benign long run</text><text x="568" y="93" font-family="Arial" font-size="15" font-weight="700">Recent species per length</text><line x1="568" y1="310" x2="1033" y2="310" stroke="#333"/><line x1="568" y1="105" x2="568" y2="310" stroke="#333"/><rect x="605" y="256.3576967113899" width="42" height="53.64230328861011" fill="#4e6b7d"/><line x1="626" x2="626" y1="249.6007610755422" y2="263.59359381790307" stroke="#222" stroke-width="2"/><line x1="617" x2="635" y1="263.59359381790307" y2="263.59359381790307" stroke="#222" stroke-width="2"/><line x1="617" x2="635" y1="249.6007610755422" y2="249.6007610755422" stroke="#222" stroke-width="2"/><text x="626" y="327" text-anchor="middle" font-family="Arial" font-size="10" fill="#333">web</text><text x="626" y="250.3576967113899" text-anchor="middle" font-family="Arial" font-size="10" fill="#333">1.2</text><rect x="713" y="172.6991928257082" width="42" height="137.3008071742918" fill="#7b6a53"/><line x1="734" x2="734" y1="156.08695652173913" y2="189.87353404040294" stroke="#222" stroke-width="2"/><line x1="725" x2="743" y1="189.87353404040294" y2="189.87353404040294" stroke="#222" stroke-width="2"/><line x1="725" x2="743" y1="156.08695652173913" y2="156.08695652173913" stroke="#222" stroke-width="2"/><text x="734" y="327" text-anchor="middle" font-family="Arial" font-size="10" fill="#333">mst</text><text x="734" y="166.6991928257082" text-anchor="middle" font-family="Arial" font-size="10" fill="#333">3.0</text><rect x="821" y="237.4884219059856" width="42" height="72.51157809401438" fill="#2f8f6f"/><line x1="842" x2="842" y1="229.06562105149914" y2="245.8508989839293" stroke="#222" stroke-width="2"/><line x1="833" x2="851" y1="245.8508989839293" y2="245.8508989839293" stroke="#222" stroke-width="2"/><line x1="833" x2="851" y1="229.06562105149914" y2="229.06562105149914" stroke="#222" stroke-width="2"/><text x="842" y="327" text-anchor="middle" font-family="Arial" font-size="10" fill="#333">tree</text><text x="842" y="231.4884219059856" text-anchor="middle" font-family="Arial" font-size="10" fill="#333">1.6</text><rect x="929" y="242.71362708544916" width="42" height="67.28637291455084" fill="#b7791f"/><line x1="950" x2="950" y1="235.11330458606778" y2="251.00297866631882" stroke="#222" stroke-width="2"/><line x1="941" x2="959" y1="251.00297866631882" y2="251.00297866631882" stroke="#222" stroke-width="2"/><line x1="941" x2="959" y1="235.11330458606778" y2="235.11330458606778" stroke="#222" stroke-width="2"/><text x="950" y="327" text-anchor="middle" font-family="Arial" font-size="10" fill="#333">hybrid</text><text x="950" y="236.71362708544916" text-anchor="middle" font-family="Arial" font-size="10" fill="#333">1.5</text><text x="48" y="308" font-family="Arial" font-size="13" fill="#555">benign long run</text><text x="48" y="328" font-family="Arial" font-size="15" font-weight="700">Recent total CV</text><line x1="48" y1="545" x2="513" y2="545" stroke="#333"/><line x1="48" y1="340" x2="48" y2="545" stroke="#333"/><rect x="85" y="543.9729445910125" width="42" height="1.02705540898753" fill="#4e6b7d"/><line x1="106" x2="106" y1="544.9432736437861" y2="545" stroke="#222" stroke-width="2"/><line x1="97" x2="115" y1="545" y2="545" stroke="#222" stroke-width="2"/><line x1="97" x2="115" y1="544.9432736437861" y2="544.9432736437861" stroke="#222" stroke-width="2"/><text x="106" y="562" text-anchor="middle" font-family="Arial" font-size="10" fill="#333">web</text><text x="106" y="537.9729445910125" text-anchor="middle" font-family="Arial" font-size="10" fill="#333">0.00</text><rect x="193" y="505.0139626374536" width="42" height="39.9860373625464" fill="#7b6a53"/><line x1="214" x2="214" y1="544.8883818058328" y2="545" stroke="#222" stroke-width="2"/><line x1="205" x2="223" y1="545" y2="545" stroke="#222" stroke-width="2"/><line x1="205" x2="223" y1="544.8883818058328" y2="544.8883818058328" stroke="#222" stroke-width="2"/><text x="214" y="562" text-anchor="middle" font-family="Arial" font-size="10" fill="#333">mst</text><text x="214" y="499.0139626374536" text-anchor="middle" font-family="Arial" font-size="10" fill="#333">0.00</text><rect x="301" y="-18246.75947244882" width="42" height="18791.75947244882" fill="#2f8f6f"/><line x1="322" x2="322" y1="391.0869565217391" y2="545" stroke="#222" stroke-width="2"/><line x1="313" x2="331" y1="545" y2="545" stroke="#222" stroke-width="2"/><line x1="313" x2="331" y1="391.0869565217391" y2="391.0869565217391" stroke="#222" stroke-width="2"/><text x="322" y="562" text-anchor="middle" font-family="Arial" font-size="10" fill="#333">tree</text><text x="322" y="-18252.75947244882" text-anchor="middle" font-family="Arial" font-size="10" fill="#333">0.00</text><rect x="409" y="224.80350310933414" width="42" height="320.19649689066586" fill="#b7791f"/><line x1="430" x2="430" y1="544.9363521366727" y2="545" stroke="#222" stroke-width="2"/><line x1="421" x2="439" y1="545" y2="545" stroke="#222" stroke-width="2"/><line x1="421" x2="439" y1="544.9363521366727" y2="544.9363521366727" stroke="#222" stroke-width="2"/><text x="430" y="562" text-anchor="middle" font-family="Arial" font-size="10" fill="#333">hybrid</text><text x="430" y="218.80350310933414" text-anchor="middle" font-family="Arial" font-size="10" fill="#333">0.00</text><text x="568" y="308" font-family="Arial" font-size="13" fill="#555">benign long run</text><text x="568" y="328" font-family="Arial" font-size="15" font-weight="700">Quasi-stationary fraction</text><line x1="568" y1="545" x2="1033" y2="545" stroke="#333"/><line x1="568" y1="340" x2="568" y2="545" stroke="#333"/><rect x="605" y="391.0869565217391" width="42" height="153.91304347826087" fill="#4e6b7d"/><line x1="626" x2="626" y1="391.0869565217391" y2="391.0869565217391" stroke="#222" stroke-width="2"/><line x1="617" x2="635" y1="391.0869565217391" y2="391.0869565217391" stroke="#222" stroke-width="2"/><line x1="617" x2="635" y1="391.0869565217391" y2="391.0869565217391" stroke="#222" stroke-width="2"/><text x="626" y="562" text-anchor="middle" font-family="Arial" font-size="10" fill="#333">web</text><text x="626" y="385.0869565217391" text-anchor="middle" font-family="Arial" font-size="10" fill="#333">1.00</text><rect x="713" y="391.0869565217391" width="42" height="153.91304347826087" fill="#7b6a53"/><line x1="734" x2="734" y1="391.0869565217391" y2="391.0869565217391" stroke="#222" stroke-width="2"/><line x1="725" x2="743" y1="391.0869565217391" y2="391.0869565217391" stroke="#222" stroke-width="2"/><line x1="725" x2="743" y1="391.0869565217391" y2="391.0869565217391" stroke="#222" stroke-width="2"/><text x="734" y="562" text-anchor="middle" font-family="Arial" font-size="10" fill="#333">mst</text><text x="734" y="385.0869565217391" text-anchor="middle" font-family="Arial" font-size="10" fill="#333">1.00</text><rect x="821" y="391.0869565217391" width="42" height="153.91304347826087" fill="#2f8f6f"/><line x1="842" x2="842" y1="391.0869565217391" y2="391.0869565217391" stroke="#222" stroke-width="2"/><line x1="833" x2="851" y1="391.0869565217391" y2="391.0869565217391" stroke="#222" stroke-width="2"/><line x1="833" x2="851" y1="391.0869565217391" y2="391.0869565217391" stroke="#222" stroke-width="2"/><text x="842" y="562" text-anchor="middle" font-family="Arial" font-size="10" fill="#333">tree</text><text x="842" y="385.0869565217391" text-anchor="middle" font-family="Arial" font-size="10" fill="#333">1.00</text><rect x="929" y="391.0869565217391" width="42" height="153.91304347826087" fill="#b7791f"/><line x1="950" x2="950" y1="391.0869565217391" y2="391.0869565217391" stroke="#222" stroke-width="2"/><line x1="941" x2="959" y1="391.0869565217391" y2="391.0869565217391" stroke="#222" stroke-width="2"/><line x1="941" x2="959" y1="391.0869565217391" y2="391.0869565217391" stroke="#222" stroke-width="2"/><text x="950" y="562" text-anchor="middle" font-family="Arial" font-size="10" fill="#333">hybrid</text><text x="950" y="385.0869565217391" text-anchor="middle" font-family="Arial" font-size="10" fill="#333">1.00</text><text x="48" y="543" font-family="Arial" font-size="13" fill="#555">costly movement</text><text x="48" y="563" font-family="Arial" font-size="15" font-weight="700">Recent persistent species</text><line x1="48" y1="780" x2="513" y2="780" stroke="#333"/><line x1="48" y1="575" x2="48" y2="780" stroke="#333"/><rect x="85" y="630.1913043478261" width="42" height="149.80869565217392" fill="#4e6b7d"/><line x1="106" x2="106" y1="626.0869565217391" y2="638.9130434782609" stroke="#222" stroke-width="2"/><line x1="97" x2="115" y1="638.9130434782609" y2="638.9130434782609" stroke="#222" stroke-width="2"/><line x1="97" x2="115" y1="626.0869565217391" y2="626.0869565217391" stroke="#222" stroke-width="2"/><text x="106" y="797" text-anchor="middle" font-family="Arial" font-size="10" fill="#333">web</text><text x="106" y="624.1913043478261" text-anchor="middle" font-family="Arial" font-size="10" fill="#333">11.7</text><rect x="193" y="630.1913043478261" width="42" height="149.80869565217392" fill="#7b6a53"/><line x1="214" x2="214" y1="626.0869565217391" y2="638.9130434782609" stroke="#222" stroke-width="2"/><line x1="205" x2="223" y1="638.9130434782609" y2="638.9130434782609" stroke="#222" stroke-width="2"/><line x1="205" x2="223" y1="626.0869565217391" y2="626.0869565217391" stroke="#222" stroke-width="2"/><text x="214" y="797" text-anchor="middle" font-family="Arial" font-size="10" fill="#333">mst</text><text x="214" y="624.1913043478261" text-anchor="middle" font-family="Arial" font-size="10" fill="#333">11.7</text><rect x="301" y="630.1913043478261" width="42" height="149.80869565217392" fill="#2f8f6f"/><line x1="322" x2="322" y1="626.0869565217391" y2="638.9130434782609" stroke="#222" stroke-width="2"/><line x1="313" x2="331" y1="638.9130434782609" y2="638.9130434782609" stroke="#222" stroke-width="2"/><line x1="313" x2="331" y1="626.0869565217391" y2="626.0869565217391" stroke="#222" stroke-width="2"/><text x="322" y="797" text-anchor="middle" font-family="Arial" font-size="10" fill="#333">tree</text><text x="322" y="624.1913043478261" text-anchor="middle" font-family="Arial" font-size="10" fill="#333">11.7</text><rect x="409" y="630.4478260869565" width="42" height="149.55217391304348" fill="#b7791f"/><line x1="430" x2="430" y1="626.0869565217391" y2="645.9673913043478" stroke="#222" stroke-width="2"/><line x1="421" x2="439" y1="645.9673913043478" y2="645.9673913043478" stroke="#222" stroke-width="2"/><line x1="421" x2="439" y1="626.0869565217391" y2="626.0869565217391" stroke="#222" stroke-width="2"/><text x="430" y="797" text-anchor="middle" font-family="Arial" font-size="10" fill="#333">hybrid</text><text x="430" y="624.4478260869565" text-anchor="middle" font-family="Arial" font-size="10" fill="#333">11.7</text><text x="568" y="543" font-family="Arial" font-size="13" fill="#555">costly movement</text><text x="568" y="563" font-family="Arial" font-size="15" font-weight="700">Recent species per length</text><line x1="568" y1="780" x2="1033" y2="780" stroke="#333"/><line x1="568" y1="575" x2="568" y2="780" stroke="#333"/><rect x="605" y="726.3576967113898" width="42" height="53.64230328861011" fill="#4e6b7d"/><line x1="626" x2="626" y1="719.6007610755422" y2="733.5935938179031" stroke="#222" stroke-width="2"/><line x1="617" x2="635" y1="733.5935938179031" y2="733.5935938179031" stroke="#222" stroke-width="2"/><line x1="617" x2="635" y1="719.6007610755422" y2="719.6007610755422" stroke="#222" stroke-width="2"/><text x="626" y="797" text-anchor="middle" font-family="Arial" font-size="10" fill="#333">web</text><text x="626" y="720.3576967113898" text-anchor="middle" font-family="Arial" font-size="10" fill="#333">1.2</text><rect x="713" y="642.6991928257082" width="42" height="137.3008071742918" fill="#7b6a53"/><line x1="734" x2="734" y1="626.0869565217391" y2="659.873534040403" stroke="#222" stroke-width="2"/><line x1="725" x2="743" y1="659.873534040403" y2="659.873534040403" stroke="#222" stroke-width="2"/><line x1="725" x2="743" y1="626.0869565217391" y2="626.0869565217391" stroke="#222" stroke-width="2"/><text x="734" y="797" text-anchor="middle" font-family="Arial" font-size="10" fill="#333">mst</text><text x="734" y="636.6991928257082" text-anchor="middle" font-family="Arial" font-size="10" fill="#333">3.0</text><rect x="821" y="707.4884219059857" width="42" height="72.51157809401438" fill="#2f8f6f"/><line x1="842" x2="842" y1="699.0656210514992" y2="715.8508989839293" stroke="#222" stroke-width="2"/><line x1="833" x2="851" y1="715.8508989839293" y2="715.8508989839293" stroke="#222" stroke-width="2"/><line x1="833" x2="851" y1="699.0656210514992" y2="699.0656210514992" stroke="#222" stroke-width="2"/><text x="842" y="797" text-anchor="middle" font-family="Arial" font-size="10" fill="#333">tree</text><text x="842" y="701.4884219059857" text-anchor="middle" font-family="Arial" font-size="10" fill="#333">1.6</text><rect x="929" y="712.6012248295096" width="42" height="67.39877517049037" fill="#b7791f"/><line x1="950" x2="950" y1="705.1133045860678" y2="721.0029786663188" stroke="#222" stroke-width="2"/><line x1="941" x2="959" y1="721.0029786663188" y2="721.0029786663188" stroke="#222" stroke-width="2"/><line x1="941" x2="959" y1="705.1133045860678" y2="705.1133045860678" stroke="#222" stroke-width="2"/><text x="950" y="797" text-anchor="middle" font-family="Arial" font-size="10" fill="#333">hybrid</text><text x="950" y="706.6012248295096" text-anchor="middle" font-family="Arial" font-size="10" fill="#333">1.5</text></svg>