<svg xmlns="http://www.w3.org/2000/svg" width="360" height="360" viewBox="0 0 360 360">
<rect width="100%" height="100%" fill="#f7faf9"/>
<text x="40" y="24" font-family="Arial, sans-serif" font-size="16" font-weight="700" fill="#234a65">Synthetic habitat suitability</text>
<rect x="40" y="292" width="26" height="26" rx="3" fill="#d7e5e2" fill-opacity="0.363"/>
<rect x="68" y="292" width="26" height="26" rx="3" fill="#d7e5e2" fill-opacity="0.373"/>
<rect x="96" y="292" width="26" height="26" rx="3" fill="#d7e5e2" fill-opacity="0.385"/>
<rect x="124" y="292" width="26" height="26" rx="3" fill="#d7e5e2" fill-opacity="0.397"/>
<rect x="152" y="292" width="26" height="26" rx="3" fill="#d7e5e2" fill-opacity="0.401"/>
<rect x="180" y="292" width="26" height="26" rx="3" fill="#d7e5e2" fill-opacity="0.398"/>
<rect x="208" y="292" width="26" height="26" rx="3" fill="#d7e5e2" fill-opacity="0.389"/>
<rect x="236" y="292" width="26" height="26" rx="3" fill="#d7e5e2" fill-opacity="0.379"/>
<rect x="264" y="292" width="26" height="26" rx="3" fill="#d7e5e2" fill-opacity="0.372"/>
<rect x="292" y="292" width="26" height="26" rx="3" fill="#d7e5e2" fill-opacity="0.367"/>
<rect x="40" y="264" width="26" height="26" rx="3" fill="#d7e5e2" fill-opacity="0.381"/>
<rect x="68" y="264" width="26" height="26" rx="3" fill="#d7e5e2" fill-opacity="0.400"/>
<rect x="96" y="264" width="26" height="26" rx="3" fill="#d7e5e2" fill-opacity="0.423"/>
<rect x="124" y="264" width="26" height="26" rx="3" fill="#d7e5e2" fill-opacity="0.441"/>
<rect x="152" y="264" width="26" height="26" rx="3" fill="#d7e5e2" fill-opacity="0.448"/>
<rect x="180" y="264" width="26" height="26" rx="3" fill="#d7e5e2" fill-opacity="0.439"/>
<rect x="208" y="264" width="26" height="26" rx="3" fill="#d7e5e2" fill-opacity="0.422"/>
<rect x="236" y="264" width="26" height="26" rx="3" fill="#d7e5e2" fill-opacity="0.403"/>
<rect x="264" y="264" width="26" height="26" rx="3" fill="#d7e5e2" fill-opacity="0.389"/>
<rect x="292" y="264" width="26" height="26" rx="3" fill="#d7e5e2" fill-opacity="0.380"/>
<rect x="40" y="236" width="26" height="26" rx="3" fill="#d7e5e2" fill-opacity="0.416"/>
<rect x="68" y="236" width="26" height="26" rx="3" fill="#d7e5e2" fill-opacity="0.450"/>
<rect x="96" y="236" width="26" height="26" rx="3" fill="#d7e5e2" fill-opacity="0.486"/>
<rect x="124" y="236" width="26" height="26" rx="3" fill="#42bcdc" fill-opacity="0.512"/>
<rect x="152" y="236" width="26" height="26" rx="3" fill="#42bcdc" fill-opacity="0.518"/>
<rect x="180" y="236" width="26" height="26" rx="3" fill="#42bcdc" fill-opacity="0.502"/>
<rect x="208" y="236" width="26" height="26" rx="3" fill="#d7e5e2" fill-opacity="0.472"/>
<rect x="236" y="236" width="26" height="26" rx="3" fill="#d7e5e2" fill-opacity="0.440"/>
<rect x="264" y="236" width="26" height="26" rx="3" fill="#d7e5e2" fill-opacity="0.415"/>
<rect x="292" y="236" width="26" height="26" rx="3" fill="#d7e5e2" fill-opacity="0.399"/>
<rect x="40" y="208" width="26" height="26" rx="3" fill="#d7e5e2" fill-opacity="0.478"/>
<rect x="68" y="208" width="26" height="26" rx="3" fill="#42bcdc" fill-opacity="0.530"/>
<rect x="96" y="208" width="26" height="26" rx="3" fill="#42bcdc" fill-opacity="0.577"/>
<rect x="124" y="208" width="26" height="26" rx="3" fill="#42bcdc" fill-opacity="0.607"/>
<rect x="152" y="208" width="26" height="26" rx="3" fill="#42bcdc" fill-opacity="0.609"/>
<rect x="180" y="208" width="26" height="26" rx="3" fill="#42bcdc" fill-opacity="0.583"/>
<rect x="208" y="208" width="26" height="26" rx="3" fill="#42bcdc" fill-opacity="0.538"/>
<rect x="236" y="208" width="26" height="26" rx="3" fill="#d7e5e2" fill-opacity="0.490"/>
<rect x="264" y="208" width="26" height="26" rx="3" fill="#d7e5e2" fill-opacity="0.451"/>
<rect x="292" y="208" width="26" height="26" rx="3" fill="#d7e5e2" fill-opacity="0.424"/>
<rect x="40" y="180" width="26" height="26" rx="3" fill="#42bcdc" fill-opacity="0.571"/>
<rect x="68" y="180" width="26" height="26" rx="3" fill="#42bcdc" fill-opacity="0.635"/>
<rect x="96" y="180" width="26" height="26" rx="3" fill="#007135" fill-opacity="0.686"/>
<rect x="124" y="180" width="26" height="26" rx="3" fill="#007135" fill-opacity="0.711"/>
<rect x="152" y="180" width="26" height="26" rx="3" fill="#007135" fill-opacity="0.704"/>
<rect x="180" y="180" width="26" height="26" rx="3" fill="#007135" fill-opacity="0.667"/>
<rect x="208" y="180" width="26" height="26" rx="3" fill="#42bcdc" fill-opacity="0.608"/>
<rect x="236" y="180" width="26" height="26" rx="3" fill="#42bcdc" fill-opacity="0.545"/>
<rect x="264" y="180" width="26" height="26" rx="3" fill="#d7e5e2" fill-opacity="0.491"/>
<rect x="292" y="180" width="26" height="26" rx="3" fill="#d7e5e2" fill-opacity="0.452"/>
<rect x="40" y="152" width="26" height="26" rx="3" fill="#007135" fill-opacity="0.683"/>
<rect x="68" y="152" width="26" height="26" rx="3" fill="#007135" fill-opacity="0.751"/>
<rect x="96" y="152" width="26" height="26" rx="3" fill="#007135" fill-opacity="0.794"/>
<rect x="124" y="152" width="26" height="26" rx="3" fill="#007135" fill-opacity="0.805"/>
<rect x="152" y="152" width="26" height="26" rx="3" fill="#007135" fill-opacity="0.784"/>
<rect x="180" y="152" width="26" height="26" rx="3" fill="#007135" fill-opacity="0.733"/>
<rect x="208" y="152" width="26" height="26" rx="3" fill="#007135" fill-opacity="0.663"/>
<rect x="236" y="152" width="26" height="26" rx="3" fill="#42bcdc" fill-opacity="0.588"/>
<rect x="264" y="152" width="26" height="26" rx="3" fill="#42bcdc" fill-opacity="0.523"/>
<rect x="292" y="152" width="26" height="26" rx="3" fill="#d7e5e2" fill-opacity="0.474"/>
<rect x="40" y="124" width="26" height="26" rx="3" fill="#007135" fill-opacity="0.788"/>
<rect x="68" y="124" width="26" height="26" rx="3" fill="#007135" fill-opacity="0.860"/>
<rect x="96" y="124" width="26" height="26" rx="3" fill="#007135" fill-opacity="0.884"/>
<rect x="124" y="124" width="26" height="26" rx="3" fill="#007135" fill-opacity="0.874"/>
<rect x="152" y="124" width="26" height="26" rx="3" fill="#007135" fill-opacity="0.834"/>
<rect x="180" y="124" width="26" height="26" rx="3" fill="#007135" fill-opacity="0.769"/>
<rect x="208" y="124" width="26" height="26" rx="3" fill="#007135" fill-opacity="0.690"/>
<rect x="236" y="124" width="26" height="26" rx="3" fill="#42bcdc" fill-opacity="0.609"/>
<rect x="264" y="124" width="26" height="26" rx="3" fill="#42bcdc" fill-opacity="0.537"/>
<rect x="292" y="124" width="26" height="26" rx="3" fill="#d7e5e2" fill-opacity="0.482"/>
<rect x="40" y="96" width="26" height="26" rx="3" fill="#007135" fill-opacity="0.877"/>
<rect x="68" y="96" width="26" height="26" rx="3" fill="#007135" fill-opacity="0.932"/>
<rect x="96" y="96" width="26" height="26" rx="3" fill="#007135" fill-opacity="0.943"/>
<rect x="124" y="96" width="26" height="26" rx="3" fill="#007135" fill-opacity="0.909"/>
<rect x="152" y="96" width="26" height="26" rx="3" fill="#007135" fill-opacity="0.849"/>
<rect x="180" y="96" width="26" height="26" rx="3" fill="#007135" fill-opacity="0.771"/>
<rect x="208" y="96" width="26" height="26" rx="3" fill="#007135" fill-opacity="0.685"/>
<rect x="236" y="96" width="26" height="26" rx="3" fill="#42bcdc" fill-opacity="0.602"/>
<rect x="264" y="96" width="26" height="26" rx="3" fill="#42bcdc" fill-opacity="0.531"/>
<rect x="292" y="96" width="26" height="26" rx="3" fill="#d7e5e2" fill-opacity="0.475"/>
<rect x="40" y="68" width="26" height="26" rx="3" fill="#007135" fill-opacity="0.941"/>
<rect x="68" y="68" width="26" height="26" rx="3" fill="#007135" fill-opacity="0.970"/>
<rect x="96" y="68" width="26" height="26" rx="3" fill="#007135" fill-opacity="0.967"/>
<rect x="124" y="68" width="26" height="26" rx="3" fill="#007135" fill-opacity="0.909"/>
<rect x="152" y="68" width="26" height="26" rx="3" fill="#007135" fill-opacity="0.831"/>
<rect x="180" y="68" width="26" height="26" rx="3" fill="#007135" fill-opacity="0.744"/>
<rect x="208" y="68" width="26" height="26" rx="3" fill="#007135" fill-opacity="0.655"/>
<rect x="236" y="68" width="26" height="26" rx="3" fill="#42bcdc" fill-opacity="0.575"/>
<rect x="264" y="68" width="26" height="26" rx="3" fill="#42bcdc" fill-opacity="0.508"/>
<rect x="292" y="68" width="26" height="26" rx="3" fill="#d7e5e2" fill-opacity="0.456"/>
<rect x="40" y="40" width="26" height="26" rx="3" fill="#007135" fill-opacity="0.977"/>
<rect x="68" y="40" width="26" height="26" rx="3" fill="#007135" fill-opacity="0.979"/>
<rect x="96" y="40" width="26" height="26" rx="3" fill="#007135" fill-opacity="0.952"/>
<rect x="124" y="40" width="26" height="26" rx="3" fill="#007135" fill-opacity="0.878"/>
<rect x="152" y="40" width="26" height="26" rx="3" fill="#007135" fill-opacity="0.788"/>
<rect x="180" y="40" width="26" height="26" rx="3" fill="#007135" fill-opacity="0.696"/>
<rect x="208" y="40" width="26" height="26" rx="3" fill="#42bcdc" fill-opacity="0.610"/>
<rect x="236" y="40" width="26" height="26" rx="3" fill="#42bcdc" fill-opacity="0.536"/>
<rect x="264" y="40" width="26" height="26" rx="3" fill="#d7e5e2" fill-opacity="0.477"/>
<rect x="292" y="40" width="26" height="26" rx="3" fill="#d7e5e2" fill-opacity="0.433"/>
<text x="40" y="350" font-family="Arial, sans-serif" font-size="11" fill="#687a80">Toy data for operational validation only. No scientific claim is implied.</text>
</svg>
