<svg xmlns="http://www.w3.org/2000/svg" width="1080" height="820" viewBox="0 0 1080 820"><rect width="100%" height="100%" fill="#ffffff"/><text x="38" y="38" font-family="Arial" font-size="22" font-weight="700">Urban corridor geometry long-run simulation, preliminary</text><text x="38" y="62" font-family="Arial" font-size="13" fill="#555">Mean across 12 seeded landscapes; sampled after burn-in through step 2200.</text><text x="48" y="73" font-family="Arial" font-size="13" fill="#555">benign long run</text><text x="48" y="93" font-family="Arial" font-size="15" font-weight="700">Recent persistent species</text><line x1="48" y1="310" x2="513" y2="310" stroke="#333"/><line x1="48" y1="105" x2="48" y2="310" stroke="#333"/><rect x="85" y="160.36231884057972" width="42" height="149.63768115942028" fill="#4e6b7d"/><line x1="106" x2="106" y1="156.08695652173913" y2="181.7391304347826" stroke="#222" stroke-width="2"/><line x1="97" x2="115" y1="181.7391304347826" y2="181.7391304347826" stroke="#222" stroke-width="2"/><line x1="97" x2="115" y1="156.08695652173913" y2="156.08695652173913" stroke="#222" stroke-width="2"/><text x="106" y="327" text-anchor="middle" font-family="Arial" font-size="10" fill="#333">web</text><text x="106" y="154.36231884057972" text-anchor="middle" font-family="Arial" font-size="10" fill="#333">5.8</text><rect x="193" y="160.36231884057972" width="42" height="149.63768115942028" fill="#7b6a53"/><line x1="214" x2="214" y1="156.08695652173913" y2="181.7391304347826" stroke="#222" stroke-width="2"/><line x1="205" x2="223" y1="181.7391304347826" y2="181.7391304347826" stroke="#222" stroke-width="2"/><line x1="205" x2="223" y1="156.08695652173913" y2="156.08695652173913" stroke="#222" stroke-width="2"/><text x="214" y="327" text-anchor="middle" font-family="Arial" font-size="10" fill="#333">mst</text><text x="214" y="154.36231884057972" text-anchor="middle" font-family="Arial" font-size="10" fill="#333">5.8</text><rect x="301" y="162.5" width="42" height="147.5" fill="#2f8f6f"/><line x1="322" x2="322" y1="156.08695652173913" y2="181.7391304347826" stroke="#222" stroke-width="2"/><line x1="313" x2="331" y1="181.7391304347826" y2="181.7391304347826" stroke="#222" stroke-width="2"/><line x1="313" x2="331" y1="156.08695652173913" y2="156.08695652173913" stroke="#222" stroke-width="2"/><text x="322" y="327" text-anchor="middle" font-family="Arial" font-size="10" fill="#333">tree</text><text x="322" y="156.5" text-anchor="middle" font-family="Arial" font-size="10" fill="#333">5.8</text><rect x="409" y="160.36231884057972" width="42" height="149.63768115942028" fill="#b7791f"/><line x1="430" x2="430" y1="156.08695652173913" y2="181.7391304347826" stroke="#222" stroke-width="2"/><line x1="421" x2="439" y1="181.7391304347826" y2="181.7391304347826" stroke="#222" stroke-width="2"/><line x1="421" x2="439" y1="156.08695652173913" y2="156.08695652173913" stroke="#222" stroke-width="2"/><text x="430" y="327" text-anchor="middle" font-family="Arial" font-size="10" fill="#333">hybrid</text><text x="430" y="154.36231884057972" text-anchor="middle" font-family="Arial" font-size="10" fill="#333">5.8</text><text x="568" y="73" font-family="Arial" font-size="13" fill="#555">benign long run</text><text x="568" y="93" font-family="Arial" font-size="15" font-weight="700">Recent species per length</text><line x1="568" y1="310" x2="1033" y2="310" stroke="#333"/><line x1="568" y1="105" x2="568" y2="310" stroke="#333"/><rect x="605" y="255.277983225426" width="42" height="54.722016774573994" fill="#4e6b7d"/><line x1="626" x2="626" y1="247.38427497878703" y2="262.4115767218114" stroke="#222" stroke-width="2"/><line x1="617" x2="635" y1="262.4115767218114" y2="262.4115767218114" stroke="#222" stroke-width="2"/><line x1="617" x2="635" y1="247.38427497878703" y2="247.38427497878703" stroke="#222" stroke-width="2"/><text x="626" y="327" text-anchor="middle" font-family="Arial" font-size="10" fill="#333">web</text><text x="626" y="249.277983225426" text-anchor="middle" font-family="Arial" font-size="10" fill="#333">0.9</text><rect x="713" y="170.60574792661876" width="42" height="139.39425207338124" fill="#7b6a53"/><line x1="734" x2="734" y1="156.08695652173913" y2="190.35939200752227" stroke="#222" stroke-width="2"/><line x1="725" x2="743" y1="190.35939200752227" y2="190.35939200752227" stroke="#222" stroke-width="2"/><line x1="725" x2="743" y1="156.08695652173913" y2="156.08695652173913" stroke="#222" stroke-width="2"/><text x="734" y="327" text-anchor="middle" font-family="Arial" font-size="10" fill="#333">mst</text><text x="734" y="164.60574792661876" text-anchor="middle" font-family="Arial" font-size="10" fill="#333">2.2</text><rect x="821" y="232.74595001682297" width="42" height="77.25404998317703" fill="#2f8f6f"/><line x1="842" x2="842" y1="220.12153949675326" y2="248.20464587676048" stroke="#222" stroke-width="2"/><line x1="833" x2="851" y1="248.20464587676048" y2="248.20464587676048" stroke="#222" stroke-width="2"/><line x1="833" x2="851" y1="220.12153949675326" y2="220.12153949675326" stroke="#222" stroke-width="2"/><text x="842" y="327" text-anchor="middle" font-family="Arial" font-size="10" fill="#333">tree</text><text x="842" y="226.74595001682297" text-anchor="middle" font-family="Arial" font-size="10" fill="#333">1.2</text><rect x="929" y="237.5858083941785" width="42" height="72.41419160582147" fill="#b7791f"/><line x1="950" x2="950" y1="228.42967064818902" y2="246.47975459308344" stroke="#222" stroke-width="2"/><line x1="941" x2="959" y1="246.47975459308344" y2="246.47975459308344" stroke="#222" stroke-width="2"/><line x1="941" x2="959" y1="228.42967064818902" y2="228.42967064818902" stroke="#222" stroke-width="2"/><text x="950" y="327" text-anchor="middle" font-family="Arial" font-size="10" fill="#333">hybrid</text><text x="950" y="231.5858083941785" text-anchor="middle" font-family="Arial" font-size="10" fill="#333">1.2</text><text x="48" y="308" font-family="Arial" font-size="13" fill="#555">benign long run</text><text x="48" y="328" font-family="Arial" font-size="15" font-weight="700">Recent total CV</text><line x1="48" y1="545" x2="513" y2="545" stroke="#333"/><line x1="48" y1="340" x2="48" y2="545" stroke="#333"/><rect x="85" y="544.8903579281736" width="42" height="0.1096420718263876" fill="#4e6b7d"/><line x1="106" x2="106" y1="544.4197169139857" y2="545" stroke="#222" stroke-width="2"/><line x1="97" x2="115" y1="545" y2="545" stroke="#222" stroke-width="2"/><line x1="97" x2="115" y1="544.4197169139857" y2="544.4197169139857" stroke="#222" stroke-width="2"/><text x="106" y="562" text-anchor="middle" font-family="Arial" font-size="10" fill="#333">web</text><text x="106" y="538.8903579281736" text-anchor="middle" font-family="Arial" font-size="10" fill="#333">0.00</text><rect x="193" y="544.9761272132085" width="42" height="0.02387278679143274" fill="#7b6a53"/><line x1="214" x2="214" y1="544.8852703740114" y2="545" stroke="#222" stroke-width="2"/><line x1="205" x2="223" y1="545" y2="545" stroke="#222" stroke-width="2"/><line x1="205" x2="223" y1="544.8852703740114" y2="544.8852703740114" stroke="#222" stroke-width="2"/><text x="214" y="562" text-anchor="middle" font-family="Arial" font-size="10" fill="#333">mst</text><text x="214" y="538.9761272132085" text-anchor="middle" font-family="Arial" font-size="10" fill="#333">0.00</text><rect x="301" y="516.5068638307989" width="42" height="28.493136169201073" fill="#2f8f6f"/><line x1="322" x2="322" y1="391.0869565217391" y2="545" stroke="#222" stroke-width="2"/><line x1="313" x2="331" y1="545" y2="545" stroke="#222" stroke-width="2"/><line x1="313" x2="331" y1="391.0869565217391" y2="391.0869565217391" stroke="#222" stroke-width="2"/><text x="322" y="562" text-anchor="middle" font-family="Arial" font-size="10" fill="#333">tree</text><text x="322" y="510.5068638307989" text-anchor="middle" font-family="Arial" font-size="10" fill="#333">0.00</text><rect x="409" y="544.9909572907035" width="42" height="0.009042709296485683" fill="#b7791f"/><line x1="430" x2="430" y1="544.9792384108931" y2="545" stroke="#222" stroke-width="2"/><line x1="421" x2="439" y1="545" y2="545" stroke="#222" stroke-width="2"/><line x1="421" x2="439" y1="544.9792384108931" y2="544.9792384108931" stroke="#222" stroke-width="2"/><text x="430" y="562" text-anchor="middle" font-family="Arial" font-size="10" fill="#333">hybrid</text><text x="430" y="538.9909572907035" text-anchor="middle" font-family="Arial" font-size="10" fill="#333">0.00</text><text x="568" y="308" font-family="Arial" font-size="13" fill="#555">benign long run</text><text x="568" y="328" font-family="Arial" font-size="15" font-weight="700">Quasi-stationary fraction</text><line x1="568" y1="545" x2="1033" y2="545" stroke="#333"/><line x1="568" y1="340" x2="568" y2="545" stroke="#333"/><rect x="605" y="391.0869565217391" width="42" height="153.91304347826087" fill="#4e6b7d"/><line x1="626" x2="626" y1="391.0869565217391" y2="391.0869565217391" stroke="#222" stroke-width="2"/><line x1="617" x2="635" y1="391.0869565217391" y2="391.0869565217391" stroke="#222" stroke-width="2"/><line x1="617" x2="635" y1="391.0869565217391" y2="391.0869565217391" stroke="#222" stroke-width="2"/><text x="626" y="562" text-anchor="middle" font-family="Arial" font-size="10" fill="#333">web</text><text x="626" y="385.0869565217391" text-anchor="middle" font-family="Arial" font-size="10" fill="#333">1.00</text><rect x="713" y="391.0869565217391" width="42" height="153.91304347826087" fill="#7b6a53"/><line x1="734" x2="734" y1="391.0869565217391" y2="391.0869565217391" stroke="#222" stroke-width="2"/><line x1="725" x2="743" y1="391.0869565217391" y2="391.0869565217391" stroke="#222" stroke-width="2"/><line x1="725" x2="743" y1="391.0869565217391" y2="391.0869565217391" stroke="#222" stroke-width="2"/><text x="734" y="562" text-anchor="middle" font-family="Arial" font-size="10" fill="#333">mst</text><text x="734" y="385.0869565217391" text-anchor="middle" font-family="Arial" font-size="10" fill="#333">1.00</text><rect x="821" y="391.0869565217391" width="42" height="153.91304347826087" fill="#2f8f6f"/><line x1="842" x2="842" y1="391.0869565217391" y2="391.0869565217391" stroke="#222" stroke-width="2"/><line x1="833" x2="851" y1="391.0869565217391" y2="391.0869565217391" stroke="#222" stroke-width="2"/><line x1="833" x2="851" y1="391.0869565217391" y2="391.0869565217391" stroke="#222" stroke-width="2"/><text x="842" y="562" text-anchor="middle" font-family="Arial" font-size="10" fill="#333">tree</text><text x="842" y="385.0869565217391" text-anchor="middle" font-family="Arial" font-size="10" fill="#333">1.00</text><rect x="929" y="391.0869565217391" width="42" height="153.91304347826087" fill="#b7791f"/><line x1="950" x2="950" y1="391.0869565217391" y2="391.0869565217391" stroke="#222" stroke-width="2"/><line x1="941" x2="959" y1="391.0869565217391" y2="391.0869565217391" stroke="#222" stroke-width="2"/><line x1="941" x2="959" y1="391.0869565217391" y2="391.0869565217391" stroke="#222" stroke-width="2"/><text x="950" y="562" text-anchor="middle" font-family="Arial" font-size="10" fill="#333">hybrid</text><text x="950" y="385.0869565217391" text-anchor="middle" font-family="Arial" font-size="10" fill="#333">1.00</text><text x="48" y="543" font-family="Arial" font-size="13" fill="#555">costly movement</text><text x="48" y="563" font-family="Arial" font-size="15" font-weight="700">Recent persistent species</text><line x1="48" y1="780" x2="513" y2="780" stroke="#333"/><line x1="48" y1="575" x2="48" y2="780" stroke="#333"/><rect x="85" y="630.3623188405797" width="42" height="149.63768115942028" fill="#4e6b7d"/><line x1="106" x2="106" y1="626.0869565217391" y2="651.7391304347826" stroke="#222" stroke-width="2"/><line x1="97" x2="115" y1="651.7391304347826" y2="651.7391304347826" stroke="#222" stroke-width="2"/><line x1="97" x2="115" y1="626.0869565217391" y2="626.0869565217391" stroke="#222" stroke-width="2"/><text x="106" y="797" text-anchor="middle" font-family="Arial" font-size="10" fill="#333">web</text><text x="106" y="624.3623188405797" text-anchor="middle" font-family="Arial" font-size="10" fill="#333">5.8</text><rect x="193" y="630.3623188405797" width="42" height="149.63768115942028" fill="#7b6a53"/><line x1="214" x2="214" y1="626.0869565217391" y2="651.7391304347826" stroke="#222" stroke-width="2"/><line x1="205" x2="223" y1="651.7391304347826" y2="651.7391304347826" stroke="#222" stroke-width="2"/><line x1="205" x2="223" y1="626.0869565217391" y2="626.0869565217391" stroke="#222" stroke-width="2"/><text x="214" y="797" text-anchor="middle" font-family="Arial" font-size="10" fill="#333">mst</text><text x="214" y="624.3623188405797" text-anchor="middle" font-family="Arial" font-size="10" fill="#333">5.8</text><rect x="301" y="630.3623188405797" width="42" height="149.63768115942028" fill="#2f8f6f"/><line x1="322" x2="322" y1="626.0869565217391" y2="651.7391304347826" stroke="#222" stroke-width="2"/><line x1="313" x2="331" y1="651.7391304347826" y2="651.7391304347826" stroke="#222" stroke-width="2"/><line x1="313" x2="331" y1="626.0869565217391" y2="626.0869565217391" stroke="#222" stroke-width="2"/><text x="322" y="797" text-anchor="middle" font-family="Arial" font-size="10" fill="#333">tree</text><text x="322" y="624.3623188405797" text-anchor="middle" font-family="Arial" font-size="10" fill="#333">5.8</text><rect x="409" y="630.3623188405797" width="42" height="149.63768115942028" fill="#b7791f"/><line x1="430" x2="430" y1="626.0869565217391" y2="651.7391304347826" stroke="#222" stroke-width="2"/><line x1="421" x2="439" y1="651.7391304347826" y2="651.7391304347826" stroke="#222" stroke-width="2"/><line x1="421" x2="439" y1="626.0869565217391" y2="626.0869565217391" stroke="#222" stroke-width="2"/><text x="430" y="797" text-anchor="middle" font-family="Arial" font-size="10" fill="#333">hybrid</text><text x="430" y="624.3623188405797" text-anchor="middle" font-family="Arial" font-size="10" fill="#333">5.8</text><text x="568" y="543" font-family="Arial" font-size="13" fill="#555">costly movement</text><text x="568" y="563" font-family="Arial" font-size="15" font-weight="700">Recent species per length</text><line x1="568" y1="780" x2="1033" y2="780" stroke="#333"/><line x1="568" y1="575" x2="568" y2="780" stroke="#333"/><rect x="605" y="725.277983225426" width="42" height="54.722016774573994" fill="#4e6b7d"/><line x1="626" x2="626" y1="717.3842749787871" y2="732.4115767218115" stroke="#222" stroke-width="2"/><line x1="617" x2="635" y1="732.4115767218115" y2="732.4115767218115" stroke="#222" stroke-width="2"/><line x1="617" x2="635" y1="717.3842749787871" y2="717.3842749787871" stroke="#222" stroke-width="2"/><text x="626" y="797" text-anchor="middle" font-family="Arial" font-size="10" fill="#333">web</text><text x="626" y="719.277983225426" text-anchor="middle" font-family="Arial" font-size="10" fill="#333">0.9</text><rect x="713" y="640.6057479266187" width="42" height="139.39425207338124" fill="#7b6a53"/><line x1="734" x2="734" y1="626.0869565217391" y2="660.3593920075223" stroke="#222" stroke-width="2"/><line x1="725" x2="743" y1="660.3593920075223" y2="660.3593920075223" stroke="#222" stroke-width="2"/><line x1="725" x2="743" y1="626.0869565217391" y2="626.0869565217391" stroke="#222" stroke-width="2"/><text x="734" y="797" text-anchor="middle" font-family="Arial" font-size="10" fill="#333">mst</text><text x="734" y="634.6057479266187" text-anchor="middle" font-family="Arial" font-size="10" fill="#333">2.2</text><rect x="821" y="701.7743321055959" width="42" height="78.22566789440403" fill="#2f8f6f"/><line x1="842" x2="842" y1="690.1215394967533" y2="712.4280184716839" stroke="#222" stroke-width="2"/><line x1="833" x2="851" y1="712.4280184716839" y2="712.4280184716839" stroke="#222" stroke-width="2"/><line x1="833" x2="851" y1="690.1215394967533" y2="690.1215394967533" stroke="#222" stroke-width="2"/><text x="842" y="797" text-anchor="middle" font-family="Arial" font-size="10" fill="#333">tree</text><text x="842" y="695.7743321055959" text-anchor="middle" font-family="Arial" font-size="10" fill="#333">1.3</text><rect x="929" y="707.5858083941786" width="42" height="72.41419160582147" fill="#b7791f"/><line x1="950" x2="950" y1="698.429670648189" y2="716.4797545930834" stroke="#222" stroke-width="2"/><line x1="941" x2="959" y1="716.4797545930834" y2="716.4797545930834" stroke="#222" stroke-width="2"/><line x1="941" x2="959" y1="698.429670648189" y2="698.429670648189" stroke="#222" stroke-width="2"/><text x="950" y="797" text-anchor="middle" font-family="Arial" font-size="10" fill="#333">hybrid</text><text x="950" y="701.5858083941786" text-anchor="middle" font-family="Arial" font-size="10" fill="#333">1.2</text></svg>